<!-- SVG Sprite -->
<!-- <svg width="0" height="0" class="hidden">
  <symbol xmlns="http://www.w3.org/2000/svg" fill="none" viewBox="0 0 24 24" id="btn-search-modal">
    <path fill="#9fa1aa" d="m21.775 20.688-4.81-4.809a8.463 8.463 0 1 0-1.086 1.087l4.809 4.809a.77.77 0 0 0 1.087-1.087M3.558 10.474a6.916 6.916 0 1 1 6.916 6.915 6.923 6.923 0 0 1-6.916-6.915"></path>
  </symbol>
  <symbol xmlns="http://www.w3.org/2000/svg" fill="none" viewBox="0 0 36 36" id="button-search">
    <path fill="#fff" d="M17.478 25.91c1.888 0 3.655-.515 5.161-1.41l3.568 4.667a1.29 1.29 0 0 0 1.783.25 1.234 1.234 0 0 0 .255-1.75l-3.612-4.724a9.66 9.66 0 0 0 2.822-6.821c0-5.406-4.467-9.789-9.977-9.789S7.5 10.716 7.5 16.122s4.467 9.788 9.978 9.788m7.43-9.788c0 4.025-3.327 7.288-7.43 7.288-4.104 0-7.43-3.263-7.43-7.288s3.326-7.29 7.43-7.29 7.43 3.264 7.43 7.29"></path>
  </symbol>
  <symbol xmlns="http://www.w3.org/2000/svg" fill="none" viewBox="0 0 16 16" id="provider">
    <g clip-path="url(#a)">
      <path fill="#9fa1aa" d="M2.402 14.857V2.992L12.233 8l-5.568 2.838V8c0-.63-.5-1.144-1.122-1.144-.619 0-1.122.511-1.122 1.144v4.685c0 .397.2.762.53.971.333.21.744.229 1.093.05l9.198-4.685A1.14 1.14 0 0 0 15.861 8c0-.433-.24-.828-.619-1.021L1.783.12A1.1 1.1 0 0 0 .691.172C.361.379.16.746.16 1.144v13.713C.16 15.489.66 16 1.282 16c.62 0 1.12-.51 1.12-1.143"></path>
    </g>
    <defs>
      <clipPath id="a">
        <path fill="#fff" d="M0 0h16v16H0z"></path>
      </clipPath>
    </defs>
  </symbol>
</svg> -->

<!-- SVG References -->
<!-- <svg class="icon">
  <use xlink:href="#btn-search-modal"></use>
</svg><svg class="icon">
  <use xlink:href="#button-search"></use>
</svg><svg class="icon">
  <use xlink:href="#provider"></use>
</svg> -->

<!-- assets/svg/icon.svg -->
<svg xmlns="http://www.w3.org/2000/svg">
  <symbol id="btn-search-modal" viewBox="0 0 24 24">
    <path d="m21.775 20.688-4.81-4.809a8.463 8.463 0 1 0-1.086 1.087l4.809 4.809a.77.77 0 0 0 1.087-1.087M3.558 10.474a6.916 6.916 0 1 1 6.916 6.915 6.923 6.923 0 0 1-6.916-6.915"></path>
  </symbol>

  <symbol id="button-search" viewBox="0 0 36 36">
    <path d="M17.478 25.91c1.888 0 3.655-.515 5.161-1.41l3.568 4.667a1.29 1.29 0 0 0 1.783.25 1.234 1.234 0 0 0 .255-1.75l-3.612-4.724a9.66 9.66 0 0 0 2.822-6.821c0-5.406-4.467-9.789-9.977-9.789S7.5 10.716 7.5 16.122s4.467 9.788 9.978 9.788m7.43-9.788c0 4.025-3.327 7.288-7.43 7.288-4.104 0-7.43-3.263-7.43-7.288s3.326-7.29 7.43-7.29 7.43 3.264 7.43 7.29"></path>
  </symbol>

  <symbol id="provider" viewBox="0 0 16 16">
    <g clip-path="url(#clip0)">
      <path d="M2.402 14.857V2.992L12.233 8l-5.568 2.838V8c0-.63-.5-1.144-1.122-1.144-.619 0-1.122.511-1.122 1.144v4.685c0 .397.2.762.53.971.333.21.744.229 1.093.05l9.198-4.685A1.14 1.14 0 0 0 15.861 8c0-.433-.24-.828-.619-1.021L1.783.12A1.1 1.1 0 0 0 .691.172C.361.379.16.746.16 1.144v13.713C.16 15.489.66 16 1.282 16c.62 0 1.12-.51 1.12-1.143"></path>
    </g>
    <defs>
      <clipPath id="clip0">
        <path d="M0 0h16v16H0z"></path>
      </clipPath>
    </defs>
  </symbol>
</svg>


